<svg width="68" height="28" viewBox="0 0 68 28" fill="none" xmlns="http://www.w3.org/2000/svg">
<path d="M21.6812 4.20251C18.59 1.26583 13.5783 1.26583 10.4871 4.20251L2.31838 11.9629C0.794265 13.4109 0.0216202 15.3024 0.000448371 17.2001H6.10778e-07L1.03668e-06 18.4001H0.000446384C-0.0212977 20.3512 0.75135 22.3088 2.31838 23.7975C5.40956 26.7342 10.4213 26.7342 13.5125 23.7975L21.6812 16.0371C23.2053 14.5892 23.9779 12.6977 23.9991 10.8001H24V9.60013H23.9991C24.0209 7.64896 23.2483 5.69127 21.6812 4.20251Z" fill="#FF395C"/>
<path d="M16.0184 14.806C14.624 16.1306 12.1922 16.1306 10.7979 14.8059L9.92783 13.9794L8.18767 15.6325L9.05775 16.4591C10.2183 17.5628 11.764 18.172 13.4081 18.172C15.0523 18.172 16.598 17.5628 17.7585 16.4591L20.37 13.9794C21.5216 12.8819 22.1682 11.3954 22.1682 9.84581C22.1682 8.29618 21.5216 6.80976 20.37 5.71225C19.7991 5.16914 19.1209 4.73854 18.3743 4.4452C17.6278 4.15186 16.8275 4.00156 16.0196 4.00294C15.2115 4.00134 14.411 4.15154 13.6642 4.44488C12.9174 4.73823 12.239 5.16894 11.668 5.71225L9.93923 7.35461C11.0266 7.21682 12.1375 7.28592 13.2013 7.56191L13.4081 7.36544C14.1017 6.70953 15.0404 6.34129 16.019 6.34129C16.9976 6.34129 17.9363 6.70953 18.6299 7.36544C19.3209 8.02399 19.7089 8.91594 19.7089 9.84581C19.7089 10.7757 19.3209 11.6676 18.6299 12.3262L16.0184 14.806Z" fill="white"/>
<path d="M8.05018 12.4566C9.44452 11.132 11.8763 11.132 13.2707 12.4566L14.1407 13.2832L15.8809 11.63L15.0108 10.8034C13.8503 9.69976 12.3046 9.09063 10.6604 9.09063C9.01625 9.09063 7.47054 9.69976 6.31002 10.8034L3.69855 13.2832C2.54701 14.3807 1.90039 15.8672 1.90039 17.4168C1.90039 18.9664 2.54701 20.4528 3.69855 21.5503C4.26942 22.0934 4.94763 22.524 5.69421 22.8174C6.4408 23.1107 7.24103 23.261 8.04895 23.2596C8.85707 23.2612 9.65757 23.111 10.4044 22.8177C11.1512 22.5244 11.8296 22.0936 12.4006 21.5503L14.1293 19.908C13.0419 20.0458 11.9311 19.9767 10.8672 19.7007L10.6604 19.8971C9.9669 20.5531 9.02815 20.9213 8.04956 20.9213C7.07097 20.9213 6.13222 20.5531 5.43871 19.8971C4.74769 19.2386 4.35967 18.3466 4.35967 17.4168C4.35967 16.4869 4.74769 15.595 5.43871 14.9364L8.05018 12.4566Z" fill="white"/>
<path d="M46.875 14.325C46.875 18.275 44.55 21.25 40.95 21.25C39.375 21.25 38.025 20.575 37.025 19.275V25.825H33.55V7.65H36.75V9.6C37.775 8.175 39.25 7.4 40.95 7.4C44.55 7.4 46.875 10.4 46.875 14.325ZM43.3 14.325C43.3 11.825 41.875 10.475 40.175 10.475C38.475 10.475 37.05 11.8 37.05 14.325C37.05 16.85 38.475 18.15 40.175 18.15C41.875 18.15 43.3 16.875 43.3 14.325ZM53.1268 4.55C53.1268 5.725 52.1768 6.6 50.8018 6.6C49.4518 6.6 48.5018 5.725 48.5018 4.55C48.5018 3.325 49.4518 2.45 50.8018 2.45C52.1768 2.45 53.1268 3.325 53.1268 4.55ZM52.5768 21H49.1018V7.65H52.5768V21ZM63.6191 21V19.35C62.7441 20.6 61.4191 21.25 59.5941 21.25C56.8191 21.25 54.9691 19.625 54.9691 17.125C54.9691 14.525 57.0691 13.125 60.9691 13.125C61.7191 13.125 62.3691 13.175 63.1941 13.275V12.475C63.1941 10.975 62.3441 10.1 60.8941 10.1C59.3941 10.1 58.4941 10.975 58.3691 12.475H55.2441C55.4441 9.4 57.6691 7.4 60.8941 7.4C64.3941 7.4 66.4441 9.325 66.4441 12.6V21H63.6191ZM58.2441 17.025C58.2441 18.15 59.0441 18.85 60.3441 18.85C62.1191 18.85 63.1941 17.875 63.1941 16.325V15.375C62.3691 15.25 61.7941 15.2 61.1941 15.2C59.2191 15.2 58.2441 15.825 58.2441 17.025Z" fill="#1B1D22"/>
</svg>
