<svg width="600" height="89" viewBox="0 0 600 89" fill="none" xmlns="http://www.w3.org/2000/svg">
<path d="M0 -18L25 -13C50 -8 100 2 150 5C200 8 250 4 300 11C350 18 400 36 450 42C500 48 550 42 600 38C650 34 700 32 750 28C800 24 850 18 875 15L900 12V-50L875 -49C850 -48 800 -46 750 -45C700 -44 650 -44 600 -41C550 -38 500 -32 450 -33C400 -34 350 -42 300 -44C250 -46 200 -42 150 -46C100 -50 50 -62 25 -68L0 -74V-18Z" fill="#E4C8AC"/>
<path d="M0 24L25 27C50 30 100 36 150 36C200 36 250 30 300 37C350 44 400 64 450 70C500 76 550 68 600 63C650 58 700 56 750 52C800 48 850 42 875 39L900 36V10L875 13C850 16 800 22 750 26C700 30 650 32 600 36C550 40 500 46 450 40C400 34 350 16 300 9C250 2 200 6 150 3C100 0 50 -10 25 -15L0 -20V24Z" fill="#EED9C5"/>
<path d="M0 210L25 200C50 190 100 170 150 159C200 148 250 146 300 166C350 186 400 228 450 235C500 242 550 214 600 202C650 190 700 194 750 191C800 188 850 178 875 173L900 168V34L875 37C850 40 800 46 750 50C700 54 650 56 600 61C550 66 500 74 450 68C400 62 350 42 300 35C250 28 200 34 150 34C100 34 50 28 25 25L0 22V210Z" fill="#F8EBDE"/>
</svg>
