<svg width="600" height="400" viewBox="0 0 600 400" fill="none" xmlns="http://www.w3.org/2000/svg">
<path d="M0 -15L25 -10C50 -5 100 5 150 8C200 11 250 7 300 14C350 21 400 39 450 45C500 51 550 45 600 41C650 37 700 35 750 31C800 27 850 21 875 18L900 15V-47L875 -46C850 -45 800 -43 750 -42C700 -41 650 -41 600 -38C550 -35 500 -29 450 -30C400 -31 350 -39 300 -41C250 -43 200 -39 150 -43C100 -47 50 -59 25 -65L0 -71V-15Z" fill="#E4C8AC"/>
<path d="M0 27L25 30C50 33 100 39 150 39C200 39 250 33 300 40C350 47 400 67 450 73C500 79 550 71 600 66C650 61 700 59 750 55C800 51 850 45 875 42L900 39V13L875 16C850 19 800 25 750 29C700 33 650 35 600 39C550 43 500 49 450 43C400 37 350 19 300 12C250 5 200 9 150 6C100 3 50 -7 25 -12L0 -17V27Z" fill="#EED9C5"/>
<path d="M0 213L25 203C50 193 100 173 150 162C200 151 250 149 300 169C350 189 400 231 450 238C500 245 550 217 600 205C650 193 700 197 750 194C800 191 850 181 875 176L900 171V37L875 40C850 43 800 49 750 53C700 57 650 59 600 64C550 69 500 77 450 71C400 65 350 45 300 38C250 31 200 37 150 37C100 37 50 31 25 28L0 25V213Z" fill="#F8EBDE"/>
<path d="M0 243L25 231C50 219 100 195 150 183C200 171 250 171 300 191C350 211 400 251 450 260C500 269 550 247 600 237C650 227 700 229 750 226C800 223 850 215 875 211L900 207V169L875 174C850 179 800 189 750 192C700 195 650 191 600 203C550 215 500 243 450 236C400 229 350 187 300 167C250 147 200 149 150 160C100 171 50 191 25 201L0 211V243Z" fill="#F8EBDE"/>
<path d="M0 327L25 321C50 315 100 303 150 304C200 305 250 319 300 333C350 347 400 361 450 365C500 369 550 363 600 362C650 361 700 365 750 356C800 347 850 325 875 314L900 303V205L875 209C850 213 800 221 750 224C700 227 650 225 600 235C550 245 500 267 450 258C400 249 350 209 300 189C250 169 200 169 150 181C100 193 50 217 25 229L0 241V327Z" fill="#F8EBDE"/>
<path d="M0 350L25 346C50 342 100 334 150 333C200 332 250 338 300 348C350 358 400 372 450 378C500 384 550 382 600 381C650 380 700 380 750 372C800 364 850 348 875 340L900 332V294L875 305C850 316 800 338 750 347C700 356 650 352 600 353C550 354 670 286.5 620 282.5C570 278.5 412 347 300 324C188 301 200 296 150 295C100 294 50 306 25 312L0 318V350Z" fill="#EED9C5"/>
<path d="M0 380L25 381C50 382 100 384 150 389C200 394 250 402 300 408C350 414 400 418 450 419C500 420 550 418 600 417C650 416 700 416 750 413C800 410 850 404 875 401L900 398V330L875 338C850 346 800 362 750 370C700 378 650 378 600 379C550 380 500 382 450 376C400 370 350 356 300 346C250 336 200 330 150 331C100 332 50 340 25 344L0 348V380Z" fill="#E4C8AC"/>
<path d="M0 452H25C50 452 100 452 150 451C200 450 250 448 300 450C350 452 400 458 450 461C500 464 550 464 600 463C650 462 700 460 750 459C800 458 850 458 875 458H900V396L875 399C850 402 800 408 750 411C700 414 650 414 600 415C550 416 500 418 450 417C400 416 350 412 300 406C250 400 200 392 150 387C100 382 50 380 25 379L0 378V452Z" fill="#D9B694"/>
</svg>
