<svg width="600" height="89" viewBox="0 0 600 89" fill="none" xmlns="http://www.w3.org/2000/svg">
<path d="M0 -18.9999L25 -30.9999C50 -42.9999 100 -66.9999 150 -78.9999C200 -90.9999 250 -90.9999 300 -70.9999C350 -50.9999 400 -10.9999 450 -1.99994C500 7.00006 550 -14.9999 600 -24.9999C650 -34.9999 700 -32.9999 750 -35.9999C800 -38.9999 850 -46.9999 875 -50.9999L900 -54.9999V-92.9999L875 -87.9999C850 -82.9999 800 -72.9999 750 -69.9999C700 -66.9999 650 -70.9999 600 -58.9999C550 -46.9999 500 -18.9999 450 -25.9999C400 -32.9999 350 -74.9999 300 -94.9999C250 -115 200 -113 150 -102C100 -90.9999 50 -70.9999 25 -60.9999L0 -50.9999V-18.9999Z" fill="#F8EBDE"/>
<path d="M0 65L25 59C50 53 100 41 150 42C200 43 250 57 300 71C350 85 400 99 450 103C500 107 550 101 600 100C650 99 700 103 750 94C800 85 850 63 875 52L900 41V-57L875 -53C850 -49 800 -41 750 -38C700 -35 650 -37 600 -27C550 -17 500 5.00005 450 -3.99995C400 -13 350 -53 300 -73C250 -93 200 -93 150 -81C100 -69 50 -45 25 -33L0 -21V65Z" fill="#F8EBDE"/>
<path d="M0 88L25 84C50 80 100 72 150 71C200 70 250 76 300 86C350 96 400 110 450 116C500 122 550 120 600 119C650 118 700 118 750 110C800 102 850 86 875 78L900 70V32L875 43.0001C850 54.0001 800 76.0001 750 85.0001C700 94.0001 650 90 600 91C550 92 670 24.4999 620 20.4999C570 16.4999 412 85 300 62C188 39.0001 200 34 150 33C100 32 50 44.0001 25 50.0001L0 56V88Z" fill="#EED9C5"/>
<path d="M0 118L25 119C50 120 100 122 150 127C200 132 250 140 300 146C350 152 400 156 450 157C500 158 550 156 600 155C650 154 700 154 750 151C800 148 850 142 875 139L900 136V68L875 76C850 84 800 100 750 108C700 116 650 116 600 117C550 118 500 120 450 114C400 108 350 94 300 84C250 74 200 68 150 69C100 70 50 78 25 82L0 86V118Z" fill="#E4C8AC"/>
</svg>
