<svg width="558" height="372" viewBox="0 0 558 372" fill="none" xmlns="http://www.w3.org/2000/svg">
<g clip-path="url(#clip0_182_2)">
<path d="M603 110L578 105C553 100 503 90 453 81C403 72 353 64 303 61C253 58 203 60 153 70C103 80 53 98 3 97C-47 96 -97 76 -147 73C-197 70 -247 84 -272 91L-297 98V-23H-272C-247 -23 -197 -23 -147 -23C-97 -23 -47 -23 3 -23C53 -23 103 -23 153 -23C203 -23 253 -23 303 -23C353 -23 403 -23 453 -23C503 -23 553 -23 578 -23H603V110Z" fill="#CEA57C"/>
<path d="M603 134L578 128C553 122 503 110 453 101C403 92 353 86 303 83C253 80 203 80 153 91C103 102 53 124 3 125C-47 126 -97 106 -147 103C-197 100 -247 114 -272 121L-297 128V96L-272 89C-247 82 -197 68 -147 71C-97 74 -47 94 3 95C53 96 103 78 153 68C203 58 253 56 303 59C353 62 403 70 453 79C503 88 553 98 578 103L603 108V134Z" fill="#D9B694"/>
<path d="M603 152L578 148C553 144 503 136 453 130C403 124 353 120 303 119C253 118 203 120 153 129C103 138 53 154 3 153C-47 152 -97 134 -147 132C-197 130 -247 144 -272 151L-297 158V126L-272 119C-247 112 -197 98 -147 101C-97 104 -47 124 3 123C53 122 103 100 153 89C203 78 253 78 303 81C353 84 403 90 453 99C503 108 553 120 578 126L603 132V152Z" fill="#E4C8AC"/>
<path d="M603 182L578 180C553 178 503 174 453 171C403 168 353 166 303 166C253 166 203 168 153 173C103 178 53 186 3 182C-47 178 -97 162 -147 162C-197 162 -247 178 -272 186L-297 194V156L-272 149C-247 142 -197 128 -147 130C-97 132 -47 150 3 151C53 152 103 136 153 127C203 118 253 116 303 117C353 118 403 122 453 128C503 134 553 142 578 146L603 150V182Z" fill="#EED9C5"/>
<path d="M603 218L578 213C553 208 503 198 453 194C403 190 353 192 303 193C253 194 203 194 153 200C103 206 53 218 3 214C-47 210 -97 190 -147 189C-197 188 -247 206 -272 215L-297 224V192L-272 184C-247 176 -197 160 -147 160C-97 160 -47 176 3 180C53 184 103 176 153 171C203 166 253 164 303 164C353 164 403 166 453 169C503 172 553 176 578 178L603 180V218Z" fill="#F8EBDE"/>
<path d="M603 320L578 313C553 306 503 292 453 283C403 274 353 270 303 265C253 260 203 254 153 260C103 266 53 284 3 285C-47 286 -97 270 -147 273C-197 276 -247 298 -272 309L-297 320V222L-272 213C-247 204 -197 186 -147 187C-97 188 -47 208 3 212C53 216 103 204 153 198C203 192 253 192 303 191C353 190 403 188 453 192C503 196 553 206 578 211L603 216V320Z" fill="#F8EBDE"/>
<path d="M603 404L578 396C553 388 503 372 453 369C403 366 353 376 303 378C253 380 203 374 153 377C103 380 53 392 3 398C-47 404 -97 404 -147 405C-197 406 -247 408 -272 409L-297 410V294L-272 283C-247 272 -197 250 -147 247C-97 244 -47 260 3 259C53 258 103 240 153 234C203 228 253 234 303 239C353 244 403 248 453 257C503 266 553 280 578 287L603 294V404Z" fill="#F8EBDE"/>
<path d="M603 437.921L578 429.921C553 421.921 503 405.921 453 399.921C403 393.921 353 397.921 303 401.921C253 405.921 203 409.921 153 410.921C103 411.921 53 409.921 3 411.921C-47 413.921 -97 419.921 -147 420.921C-197 421.921 -247 417.921 -272 415.921L-297 413.921V375.921L-272 374.921C-247 373.921 -197 371.921 -147 370.921C-97 369.921 -47 369.921 3 363.921C53 357.921 103 345.921 153 342.921C203 339.921 253 345.921 303 343.921C353 341.921 403 331.921 453 334.921C503 337.921 553 353.921 578 361.921L603 369.921V437.921Z" fill="#EED9C5"/>
</g>
<defs>
<clipPath id="clip0_182_2">
<rect width="900" height="600" fill="white" transform="matrix(-1 0 0 1 603 0)"/>
</clipPath>
</defs>
</svg>
