<svg width="1920" height="195" viewBox="0 0 1920 195" fill="none" xmlns="http://www.w3.org/2000/svg">
<path d="M0 55L45.7 52.5C91.3 50 182.7 45 274.2 51.7C365.7 58.3 457.3 76.7 548.8 76.5C640.3 76.3 731.7 57.7 823 43.8C914.3 30 1005.7 21 1097 15.3C1188.3 9.69999 1279.7 7.30001 1371.2 12.7C1462.7 18 1554.3 31 1645.8 39.8C1737.3 48.7 1828.7 53.3 1874.3 55.7L1920 58V195H1874.3C1828.7 195 1737.3 195 1645.8 195C1554.3 195 1462.7 195 1371.2 195C1279.7 195 1188.3 195 1097 195C1005.7 195 914.3 195 823 195C731.7 195 640.3 195 548.8 195C457.3 195 365.7 195 274.2 195C182.7 195 91.3 195 45.7 195H0V55Z" fill="#CEA57C"/>
<path d="M0 106L45.7 98C91.3 90 182.7 74 274.2 77.3C365.7 80.7 457.3 103.3 548.8 111.3C640.3 119.3 731.7 112.7 823 104.3C914.3 96 1005.7 86 1097 79.3C1188.3 72.7 1279.7 69.3 1371.2 77.5C1462.7 85.7 1554.3 105.3 1645.8 98.3C1737.3 91.3 1828.7 57.7 1874.3 40.8L1920 24V195H1874.3C1828.7 195 1737.3 195 1645.8 195C1554.3 195 1462.7 195 1371.2 195C1279.7 195 1188.3 195 1097 195C1005.7 195 914.3 195 823 195C731.7 195 640.3 195 548.8 195C457.3 195 365.7 195 274.2 195C182.7 195 91.3 195 45.7 195H0V106Z" fill="#D9B998"/>
<path d="M0 115L45.7 109.2C91.3 103.3 182.7 91.7 274.2 88.2C365.7 84.7 457.3 89.3 548.8 95.3C640.3 101.3 731.7 108.7 823 116C914.3 123.3 1005.7 130.7 1097 132.2C1188.3 133.7 1279.7 129.3 1371.2 123.8C1462.7 118.3 1554.3 111.7 1645.8 112.7C1737.3 113.7 1828.7 122.3 1874.3 126.7L1920 131V195H1874.3C1828.7 195 1737.3 195 1645.8 195C1554.3 195 1462.7 195 1371.2 195C1279.7 195 1188.3 195 1097 195C1005.7 195 914.3 195 823 195C731.7 195 640.3 195 548.8 195C457.3 195 365.7 195 274.2 195C182.7 195 91.3 195 45.7 195H0V115Z" fill="#E4CDB5"/>
<path d="M0 103L45.7 100.2C91.3 97.3 182.7 91.7 274.2 100.7C365.7 109.7 457.3 133.3 548.8 145C640.3 156.7 731.7 156.3 823 144.5C914.3 132.7 1005.7 109.3 1097 98.5C1188.3 87.7 1279.7 89.3 1371.2 94.7C1462.7 100 1554.3 109 1645.8 116.8C1737.3 124.7 1828.7 131.3 1874.3 134.7L1920 138V195H1874.3C1828.7 195 1737.3 195 1645.8 195C1554.3 195 1462.7 195 1371.2 195C1279.7 195 1188.3 195 1097 195C1005.7 195 914.3 195 823 195C731.7 195 640.3 195 548.8 195C457.3 195 365.7 195 274.2 195C182.7 195 91.3 195 45.7 195H0V103Z" fill="#EEE1D3"/>
<path d="M0 163L45.7 162.7C91.3 162.3 182.7 161.7 274.2 158.7C365.7 155.7 457.3 150.3 548.8 150.5C640.3 150.7 731.7 156.3 823 156.8C914.3 157.3 1005.7 152.7 1097 148.2C1188.3 143.7 1279.7 139.3 1371.2 143.5C1462.7 147.7 1554.3 160.3 1645.8 159.3C1737.3 158.3 1828.7 143.7 1874.3 136.3L1920 129V195H1874.3C1828.7 195 1737.3 195 1645.8 195C1554.3 195 1462.7 195 1371.2 195C1279.7 195 1188.3 195 1097 195C1005.7 195 914.3 195 823 195C731.7 195 640.3 195 548.8 195C457.3 195 365.7 195 274.2 195C182.7 195 91.3 195 45.7 195H0V163Z" fill="#F8F5F2"/>
</svg>
